# xmcd CD database file
#
# Track frame offsets:
#	150
#	31732
#	46937
#	68555
#	89105
#	119492
#	135872
#	155255
#	177655
#	195017
#	214012
#	248762
#	278825
#	320362
#
# Disc length: 4740 seconds
#
# Revision: 0
# Processed by: cddbd v1.4PL0 Copyright (c) Steve Scherf et al.
# Submitted via: CDex 1.40Release
#
DISCID=b812820e
DTITLE=Earl Hooker - The Moon Is Rising
DYEAR=1969
DGENRE=Blues
TTITLE0=The Moon Is Rising
TTITLE1=Earl's Blues
TTITLE2=Conversion Blues
TTITLE3=Guitar Rag
TTITLE4=Hooker N' Steve
TTITLE5=I'm Your Main Man
TTITLE6=New Riviera
TTITLE7=Strung Out Woman Blues
TTITLE8=Little Carey's Jump
TTITLE9=Take Me Back To East St. Louis
TTITLE10=Improvisations on Dust My Broom
TTITLE11=Improvisations on Frosty
TTITLE12=Can't Hold Out Much Longer
TTITLE13=Swingin' At Theresa's
EXTD=YEAR: 1969 ID3G: 0
EXTT0=
EXTT1=
EXTT2=
EXTT3=
EXTT4=
EXTT5=
EXTT6=
EXTT7=
EXTT8=
EXTT9=
EXTT10=
EXTT11=
EXTT12=
EXTT13=
PLAYORDER=
